<svg width="969" height="456" viewBox="0 0 969 456" fill="none" xmlns="http://www.w3.org/2000/svg">
<g clip-path="url(#clip0_631_5456)">
<rect width="969" height="456" fill="white"/>
<g filter="url(#filter0_d_631_5456)">
<rect width="969" height="456" fill="url(#paint0_linear_631_5456)" shape-rendering="crispEdges"/>
</g>
<g clip-path="url(#clip1_631_5456)">
<path d="M589.91 267.18C589.33 270.27 588.89 273.57 588.57 276.93L538.9 284.81L532.64 285.8L498.2 291.26L449.42 299V282.57L514.63 272.22H514.65C515.81 272.45 517.12 272.7 518.55 272.97C519.08 273.08 519.62 273.18 520.18 273.28C521.4 273.51 522.68 273.75 524.03 273.98C527.16 274.54 530.59 275.13 534.17 275.69C534.5 275.74 534.83 275.79 535.16 275.84C536.06 275.98 536.97 276.12 537.89 276.25C538.64 276.36 539.38 276.47 540.13 276.57C541.14 276.72 542.15 276.86 543.16 276.99C543.31 277.01 543.47 277.03 543.62 277.05C544.71 277.19 545.81 277.33 546.9 277.46C547.54 277.53 548.18 277.61 548.81 277.68C549.86 277.79 550.9 277.9 551.94 278C561.47 278.93 570.13 279.13 574.84 277.66C579.56 276.19 584.71 272.39 589.91 267.18Z" fill="#567CE0" stroke="white" stroke-miterlimit="10"/>
<path d="M449.42 282.57V282.55L307.38 275.51L394.27 263.84L399.63 263.12L414.03 261.19L453.52 255.89C453.11 257.43 452.83 259.67 453.94 261.17L393.27 268.78V276.51L450.99 279.32L508.67 270.63C508.67 270.76 508.69 270.88 508.7 271.01C508.7 271.01 510.94 271.49 514.63 272.22L449.42 282.57Z" fill="#EAECFB" stroke="white" stroke-miterlimit="10"/>
<path d="M488.12 266.01L450.95 271.61V271.64L393.27 268.78L453.94 261.17C454.24 261.58 454.64 261.93 455.16 262.2C455.16 262.2 452.89 267.66 458.89 267.78C460.23 267.8 461.55 267.51 462.79 267C466.16 265.62 475.97 262.3 486.2 265.46C486.86 265.66 487.5 265.85 488.12 266.01Z" fill="#3E50B4" stroke="white" stroke-miterlimit="10"/>
<path d="M449.42 282.55V298.98L407.94 296.92L401.69 296.61L367.25 294.91L307.38 291.94V275.51L449.42 282.55Z" fill="#B9D5FB" stroke="white" stroke-miterlimit="10"/>
<path d="M450.95 279.33L393.27 276.51V268.78L450.95 271.64V279.33Z" fill="#567CE0" stroke="white" stroke-miterlimit="10" stroke-linecap="round" stroke-linejoin="round"/>
<path d="M450.99 279.32V271.64H450.95V271.61L488.12 266.01C497.12 268.36 502.51 266.67 502.51 266.67C502.59 267.19 502.91 267.64 503.38 267.88C504.48 268.46 506.61 269.13 508.6 269.74C508.61 270.03 508.64 270.33 508.67 270.63L450.99 279.32Z" fill="#3250B8" stroke="white" stroke-miterlimit="10" stroke-linecap="round" stroke-linejoin="round"/>
<path d="M407.94 296.92V455.81H401.69V296.61L407.94 296.92Z" fill="#567CE0" stroke="white" stroke-miterlimit="10"/>
<path d="M538.9 284.81V455.81H532.64V285.8L538.9 284.81Z" fill="#567CE0" stroke="white" stroke-miterlimit="10"/>
<path d="M532.64 285.8V455.81H498.2V291.26L532.64 285.8Z" fill="#B9D5FB" stroke="white" stroke-miterlimit="10"/>
<path d="M401.69 296.61V455.81H367.25V294.91L401.69 296.61Z" fill="#B9D5FB" stroke="white" stroke-miterlimit="10"/>
<path d="M399.63 216.8V263.12L394.27 263.84V217.28L399.63 216.8Z" fill="#B9D5FB" stroke="white" stroke-miterlimit="10"/>
<path d="M414.03 215.85V261.19L399.63 263.12V216.8L406.81 216.16V214.81L410.43 215.96L414.03 215.85Z" fill="#567CE0" stroke="white" stroke-miterlimit="10"/>
<path d="M305.34 98.28H296.17V225.26H305.34V98.28Z" fill="#B9D5FB" stroke="white" stroke-miterlimit="10"/>
<path d="M305.34 98.28V225.26L394.27 217.28L399.63 216.8L406.81 216.16V107.38L305.34 98.28ZM403.82 213.81L309.37 221.87V101.67L403.82 109.73V213.81Z" fill="#3250B8" stroke="white" stroke-miterlimit="10"/>
<path d="M403.82 109.73V213.81L309.37 221.87V101.67L403.82 109.73Z" fill="#EAECFB" stroke="white" stroke-miterlimit="10"/>
<path d="M400.09 137.9L317.75 134.69V110.16L400.09 116.27V137.9Z" fill="white"/>
<path d="M375.98 145.18V181.37L364.52 158.95C362.4 154.81 357.07 154.4 354.45 158.24L346.65 169.7C344.75 172.49 340.91 172.69 338.81 170.08L336.53 167.26C333.64 163.67 328.17 164.21 325.89 168.37L317.75 183.16V143.67L375.98 145.18Z" fill="white"/>
<path d="M400.09 208.85L381.65 210.26V145.33L400.09 145.81V208.85Z" fill="white"/>
<path d="M375.97 196.39L317.75 199.55V189.74L375.97 187.4V196.39Z" fill="white"/>
<path d="M375.97 210.7L317.75 215.17V205.35L375.97 201.71V210.7Z" fill="white"/>
<path d="M375.98 181.37L317.75 183.16L325.89 168.37C328.17 164.21 333.64 163.67 336.53 167.26L338.81 170.08C340.91 172.69 344.75 172.49 346.65 169.7L354.45 158.24C357.07 154.4 362.4 154.81 364.52 158.95L375.98 181.37Z" fill="#B9D5FB"/>
<path d="M345.5 158.22C345.5 159.75 344.35 160.98 342.92 160.98C341.49 160.98 340.32 159.73 340.32 158.19C340.32 156.65 341.49 155.42 342.92 155.43C344.35 155.44 345.5 156.69 345.5 158.22Z" fill="#EAECFB"/>
<path d="M516.6 209.22L414.03 212.3V110.06L516.6 113.14V209.22Z" stroke="#221F20" stroke-width="0.25" stroke-miterlimit="10"/>
<path d="M410.43 107.46V215.96L414.03 215.85L520.03 212.69V110.73L410.43 107.46ZM516.6 209.22L414.03 212.3V110.06L516.6 113.14V209.22Z" fill="#3250B8" stroke="white" stroke-miterlimit="10"/>
<path d="M516.6 113.14V209.22L414.03 212.3V110.06L516.6 113.14Z" fill="#EAECFB"/>
<path d="M491.46 139.22V135.86C491.46 135.14 490.91 134.53 490.24 134.5L438.73 132.47C437.98 132.44 437.37 133.04 437.37 133.8V137.53" stroke="#3250B8" stroke-miterlimit="10" stroke-linecap="round" stroke-linejoin="round"/>
<path d="M479.83 156.55V154.73C479.83 154.15 480.28 153.68 480.83 153.69L501.87 154.1C502.4 154.11 502.82 154.58 502.82 155.15V156.54" stroke="#3250B8" stroke-miterlimit="10" stroke-linecap="round" stroke-linejoin="round"/>
<path d="M491.46 149.12V153.9" stroke="#3250B8" stroke-miterlimit="10" stroke-linecap="round" stroke-linejoin="round"/>
<path d="M410.43 107.46V215.96L406.81 214.81V107.38L410.43 107.46Z" fill="#567CE0" stroke="white" stroke-miterlimit="10" stroke-linecap="round" stroke-linejoin="round"/>
<path d="M476.58 129.23L453.47 128.21C451.9 128.14 450.63 126.77 450.63 125.15V119.78C450.63 118.16 451.9 116.92 453.47 117L476.58 118.28C478.07 118.36 479.28 119.71 479.28 121.28V126.49C479.28 128.07 478.07 129.29 476.58 129.23Z" fill="#56C6B6"/>
<path d="M442.49 142.73C442.49 145.6 440.2 147.88 437.37 147.81C434.52 147.74 432.2 145.33 432.2 142.43C432.2 139.53 434.52 137.26 437.37 137.35C440.21 137.45 442.49 139.85 442.49 142.73Z" fill="#567CE0"/>
<path d="M470 143.54C470 146.33 467.84 148.55 465.16 148.48C462.46 148.41 460.27 146.07 460.27 143.25C460.27 140.43 462.47 138.22 465.16 138.31C467.84 138.4 470 140.74 470 143.54Z" fill="#3250B8"/>
<path d="M496.05 144.3C496.05 147.02 494 149.18 491.46 149.11C488.91 149.05 486.83 146.77 486.83 144.02C486.83 141.27 488.91 139.12 491.46 139.21C494 139.31 496.05 141.58 496.05 144.3Z" fill="#567CE0"/>
<path d="M445.35 171.27L429.27 171.25C427.62 171.25 426.29 169.9 426.29 168.24V156.51C426.29 154.85 427.63 153.53 429.27 153.56L445.35 153.86C446.94 153.89 448.22 155.23 448.22 156.86V168.34C448.22 169.95 446.94 171.27 445.35 171.27Z" fill="#3250B8"/>
<path d="M483.12 169.26L476.52 169.24C475.02 169.24 473.81 167.95 473.81 166.36V159.32C473.81 157.74 475.03 156.47 476.52 156.5L483.12 156.61C484.59 156.63 485.78 157.92 485.78 159.49V166.45C485.78 168 484.59 169.26 483.12 169.26Z" fill="#567CE0"/>
<path d="M505.96 168.95L499.67 168.93C498.24 168.92 497.08 167.67 497.08 166.12V159.24C497.08 157.69 498.24 156.46 499.67 156.48L505.96 156.59C507.36 156.61 508.5 157.87 508.5 159.4V166.19C508.49 167.72 507.36 168.96 505.96 168.95Z" fill="#3250B8"/>
<path d="M461.18 162.72V177.05" stroke="#3250B8" stroke-miterlimit="10" stroke-linecap="round" stroke-linejoin="round"/>
<path d="M488.7 189.51L440.45 190.36C436.97 190.42 434.12 187.59 434.12 184.03V183.63C434.12 180.07 436.96 177.17 440.45 177.15L488.7 176.93C491.84 176.92 494.37 179.62 494.37 182.97V183.35C494.36 186.69 491.83 189.45 488.7 189.51Z" fill="#F8C045"/>
<path d="M471.56 199.47L431.87 200.56C431.1 200.58 430.47 199.96 430.47 199.18V199.09C430.47 198.31 431.1 197.66 431.87 197.64L471.56 196.66C472.27 196.64 472.85 197.24 472.85 197.99V198.07C472.85 198.82 472.27 199.45 471.56 199.47Z" fill="#567CE0"/>
<path d="M496.35 198.79L478.26 199.29C477.56 199.31 476.98 198.72 476.98 197.97V197.89C476.98 197.14 477.56 196.52 478.26 196.5L496.35 196.05C497.03 196.03 497.58 196.62 497.58 197.35V197.43C497.58 198.16 497.03 198.77 496.35 198.79Z" fill="#567CE0"/>
<path d="M496.35 204.45L458.68 205.71C457.95 205.73 457.35 205.13 457.35 204.37V204.28C457.35 203.52 457.95 202.88 458.68 202.86L496.35 201.71C497.03 201.69 497.58 202.27 497.58 203V203.08C497.58 203.82 497.03 204.43 496.35 204.45Z" fill="#567CE0"/>
<path d="M451.7 205.95L431.86 206.61C431.09 206.64 430.46 206.02 430.46 205.24V205.15C430.46 204.37 431.09 203.71 431.86 203.69L451.7 203.08C452.44 203.06 453.05 203.66 453.05 204.43V204.52C453.05 205.28 452.44 205.92 451.7 205.95Z" fill="#567CE0"/>
<path d="M437.38 147.8V153.7" stroke="#3250B8" stroke-miterlimit="10" stroke-linecap="round" stroke-linejoin="round"/>
<path d="M448.22 162.59L473.81 162.84" stroke="#3250B8" stroke-miterlimit="10" stroke-linecap="round" stroke-linejoin="round"/>
<path d="M465.16 128.72V138.31" stroke="#3250B8" stroke-miterlimit="10" stroke-linecap="round" stroke-linejoin="round"/>
<path d="M277.68 350.81C289.93 350.81 299.86 340.88 299.86 328.63C299.86 316.38 289.93 306.45 277.68 306.45C265.43 306.45 255.5 316.38 255.5 328.63C255.5 340.88 265.43 350.81 277.68 350.81Z" fill="#C2D4FB" stroke="white" stroke-width="2" stroke-miterlimit="10"/>
<path d="M347.27 326.68H310.92C308.97 326.68 307.37 325.08 307.37 323.13C307.37 321.18 308.97 319.58 310.92 319.58H347.27C349.22 319.58 350.82 321.18 350.82 323.13C350.82 325.08 349.23 326.68 347.27 326.68Z" fill="#567CE0"/>
<path d="M347.27 339.45H310.92C308.97 339.45 307.37 337.85 307.37 335.9C307.37 333.95 308.97 332.35 310.92 332.35H347.27C349.22 332.35 350.82 333.95 350.82 335.9C350.82 337.85 349.23 339.45 347.27 339.45Z" fill="#567CE0"/>
<path d="M265.59 330.12L274.58 339.65L289.92 320.58" stroke="#3250B8" stroke-width="5" stroke-miterlimit="10" stroke-linecap="round" stroke-linejoin="round"/>
<path d="M260.54 254.32V259.43C260.54 261.92 258.51 263.95 256.02 263.95H212.29C209.8 263.95 207.77 261.92 207.77 259.43V202.01C207.77 199.52 209.8 197.49 212.29 197.49H218.8V236.12C218.8 236.79 218.84 237.46 218.91 238.11C219.91 247.2 227.67 254.32 237.01 254.32H260.54Z" fill="#C2D4FB" stroke="white" stroke-miterlimit="10"/>
<path d="M270.38 192.99V249.56C270.38 252.18 268.24 254.32 265.62 254.32H238.99C233.55 251.23 232.79 245.82 233.06 242.55C233.16 241.39 232 240.55 230.89 240.92C222.72 243.61 218.91 238.11 218.91 238.11C218.84 237.46 218.8 236.79 218.8 236.12V192.99C218.8 190.37 220.95 188.23 223.56 188.23H265.62C268.24 188.23 270.38 190.37 270.38 192.99Z" fill="#C2D4FB" stroke="white" stroke-miterlimit="10"/>
<path d="M238.99 254.32H237.01C227.67 254.32 219.91 247.2 218.91 238.11C218.91 238.11 222.72 243.61 230.89 240.92C232 240.55 233.16 241.39 233.06 242.55C232.79 245.82 233.55 251.23 238.99 254.32Z" fill="#EAECFB" stroke="white" stroke-miterlimit="10"/>
<path d="M226.6 206.62L229.49 204.72C230.01 204.38 230.68 204.36 231.22 204.68L233.23 205.87C233.95 206.3 234.87 206.11 235.38 205.43C235.92 204.71 236.91 204.55 237.64 205.06L238.82 205.89C239.43 206.32 240.24 206.28 240.81 205.8L242.6 204.3C243.3 203.72 244.31 203.8 244.91 204.5L245.87 205.62C246.37 206.21 247.19 206.37 247.87 206.02L249.26 205.3C249.71 205.07 250.23 205.06 250.69 205.27L252.56 206.14C253.18 206.43 253.91 206.3 254.4 205.81L255.25 204.97C255.87 204.36 256.83 204.33 257.48 204.9L258.34 205.65C258.98 206.21 259.92 206.19 260.53 205.61L264.07 202.3" stroke="#3250B8" stroke-miterlimit="10" stroke-linecap="round" stroke-linejoin="round"/>
<path d="M261.56 215.25L258.86 217.15C258.37 217.49 257.75 217.51 257.25 217.19L255.37 216C254.7 215.57 253.84 215.76 253.37 216.44C252.86 217.16 251.94 217.32 251.27 216.81L250.17 215.98C249.6 215.55 248.84 215.59 248.31 216.07L246.64 217.57C245.99 218.15 245.04 218.07 244.49 217.37L243.59 216.25C243.12 215.66 242.36 215.5 241.72 215.85L240.42 216.57C240 216.8 239.51 216.81 239.08 216.6L237.33 215.73C236.75 215.44 236.07 215.57 235.61 216.06L234.81 216.9C234.23 217.51 233.34 217.54 232.73 216.97L231.93 216.22C231.33 215.66 230.46 215.68 229.88 216.26L226.58 219.57" stroke="#3250B8" stroke-miterlimit="10" stroke-linecap="round" stroke-linejoin="round"/>
<path d="M226.6 229.48L228.71 227.82C229.45 227.24 230.48 227.28 231.17 227.91L232.17 228.82C232.91 229.5 234.03 229.49 234.76 228.8L235.33 228.26C236.15 227.48 237.44 227.58 238.14 228.47C238.81 229.32 240.02 229.46 240.85 228.77L242 227.82C242.71 227.24 243.71 227.24 244.41 227.81L245.27 228.51C245.96 229.08 246.94 229.09 247.64 228.54L249.09 227.4C249.91 226.76 251.08 226.89 251.75 227.71L251.87 227.86C252.59 228.74 253.87 228.82 254.68 228.03L255.93 226.82" stroke="#3250B8" stroke-miterlimit="10" stroke-linecap="round" stroke-linejoin="round"/>
<path d="M228.24 37.28V83L189.27 59.09C197.31 46.01 211.75 37.28 228.24 37.28Z" fill="#F8C045" stroke="white" stroke-miterlimit="10" stroke-linecap="round" stroke-linejoin="round"/>
<path d="M273.96 83C273.96 108.25 253.5 128.72 228.24 128.72C212.38 128.72 198.41 120.65 190.22 108.38L228.24 83V37.28C253.5 37.28 273.96 57.75 273.96 83Z" fill="#56C6B6" stroke="white" stroke-miterlimit="10" stroke-linecap="round" stroke-linejoin="round"/>
<path d="M228.24 83L190.22 108.38H190.21L178.1 116.36C157 77.31 177.36 51.78 177.36 51.78L189.27 59.09L228.24 83Z" fill="#ED3A4B" stroke="white" stroke-miterlimit="10" stroke-linecap="round" stroke-linejoin="round"/>
<path d="M385.87 71.5399C385.87 72.9499 386.03 74.3299 386.35 75.6499H314.13C311.51 75.6499 309.37 73.5099 309.37 70.8899V68.2499L322.02 56.9499C326.06 53.3299 332.04 52.9099 336.56 55.9199L348.53 63.9099C350.34 65.1199 352.74 64.9499 354.36 63.4799L374.3 45.3699C378.56 41.4999 384.97 41.2299 389.53 44.7199L401.27 53.6899C392.56 54.9699 385.87 62.4699 385.87 71.5399Z" fill="#EAECFB" stroke="white" stroke-miterlimit="10"/>
<path d="M403.86 25.96H314.13C311.51 25.96 309.37 28.1 309.37 30.72V68.25L322.02 56.95C326.06 53.33 332.04 52.91 336.56 55.92L348.53 63.91C350.34 65.12 352.74 64.95 354.36 63.48L374.3 45.37C378.56 41.5 384.97 41.23 389.53 44.72L401.27 53.69C402.13 53.57 403.01 53.5 403.91 53.5C405.54 53.5 407.12 53.72 408.62 54.13V30.72C408.62 28.1 406.48 25.96 403.86 25.96Z" fill="#C2D4FB" stroke="white" stroke-miterlimit="10"/>
<path d="M421.95 71.54C421.95 81.5 413.87 89.58 403.91 89.58C395.36 89.58 388.2 83.63 386.35 75.65C386.03 74.33 385.87 72.95 385.87 71.54C385.87 62.47 392.56 54.97 401.27 53.69C402.13 53.57 403.01 53.5 403.91 53.5C405.54 53.5 407.12 53.72 408.62 54.13C416.3 56.19 421.95 63.2 421.95 71.54Z" fill="#C2D4FB" stroke="white" stroke-width="2" stroke-miterlimit="10"/>
<path d="M394.76 71.5399L401.45 78.6399L412.88 64.4299" stroke="#3250B8" stroke-width="5" stroke-miterlimit="10" stroke-linecap="round" stroke-linejoin="round"/>
<path d="M355.1 44.8099C355.1 47.0899 353.26 48.93 350.98 48.93C348.71 48.93 346.86 47.0899 346.86 44.8099C346.86 42.5399 348.71 40.7 350.98 40.7C353.26 40.7 355.1 42.5399 355.1 44.8099Z" fill="#EAECFB" stroke="white" stroke-miterlimit="10"/>
<path d="M350.98 48.93C348.71 48.93 346.86 47.0899 346.86 44.8099C346.86 42.5399 348.71 40.7 350.98 40.7C353.26 40.7 355.1 42.5399 355.1 44.8099C355.1 47.0899 353.26 48.93 350.98 48.93Z" fill="#C2D4FB" stroke="white" stroke-miterlimit="10"/>
<path d="M583.84 27.58V36.55H520.03V27.58C520.03 24.23 522.77 21.5 526.11 21.5H577.76C581.11 21.5 583.84 24.23 583.84 27.58Z" fill="#3250B8" stroke="white" stroke-miterlimit="10"/>
<path d="M583.84 36.55V61.48C583.84 61.97 583.82 62.4601 583.79 62.9501C583.53 63.2701 578.14 69.67 571 66.14C570 65.65 568.87 66.4401 568.91 67.68C569.03 72.6701 568.49 82.38 560.02 85.31H526.11C522.77 85.31 520.03 82.57 520.03 79.23V36.55H583.84Z" fill="#C2D4FB" stroke="white" stroke-miterlimit="10"/>
<path d="M583.79 62.95C583.03 75.38 572.63 85.3099 560.02 85.3099C568.49 82.3799 569.03 72.67 568.91 67.68C568.87 66.44 570 65.6499 571 66.1399C578.14 69.6699 583.53 63.27 583.79 62.95Z" fill="#EAECFB" stroke="white" stroke-miterlimit="10"/>
<path d="M551.93 73.54C559.888 73.54 566.34 67.0884 566.34 59.13C566.34 51.1715 559.888 44.72 551.93 44.72C543.972 44.72 537.52 51.1715 537.52 59.13C537.52 67.0884 543.972 73.54 551.93 73.54Z" fill="#567CE0"/>
<path d="M206.84 172.04C206.84 172.04 196.57 173.07 196.57 184.24C196.57 173.07 186.3 172.04 186.3 172.04C195.88 172.04 196.57 161.77 196.57 161.77C196.57 161.77 197.26 172.04 206.84 172.04Z" fill="#F8C045"/>
<path d="M210.27 189.26C210.27 189.26 206.84 189.6 206.84 193.34C206.84 189.61 203.41 189.26 203.41 189.26C206.61 189.26 206.84 185.83 206.84 185.83C206.84 185.83 207.07 189.26 210.27 189.26Z" fill="#F8C045"/>
<path d="M855.8 228.01C855.8 228.01 845.6 226.3 841.97 238.81C845.6 226.3 836.07 222.28 836.07 222.28C845.27 224.95 849.27 213.64 849.27 213.64C849.27 213.64 846.6 225.34 855.8 228.01Z" fill="#F8C045"/>
<path d="M834.36 209.75C836.045 209.75 837.41 208.384 837.41 206.7C837.41 205.016 836.045 203.65 834.36 203.65C832.676 203.65 831.31 205.016 831.31 206.7C831.31 208.384 832.676 209.75 834.36 209.75Z" fill="#F8C045"/>
<path d="M792.87 95.83H770.34V187.47H792.87V95.83Z" fill="#F8C045"/>
<path d="M770.34 132.66H747.81V187.47H770.34V132.66Z" fill="#3250B8"/>
<path d="M747.8 152.53H725.27V187.47H747.8V152.53Z" fill="#ED3A4B"/>
<path d="M725.27 148.3L764.55 96.01" stroke="#56C6B6" stroke-width="2" stroke-miterlimit="10" stroke-linecap="round" stroke-linejoin="round"/>
<path d="M758.38 97.41L764.62 95.83L765.29 101.99" stroke="#56C6B6" stroke-width="2" stroke-miterlimit="10" stroke-linecap="round" stroke-linejoin="round"/>
<path d="M716.48 187.47H800.71" stroke="#3250B8" stroke-width="2" stroke-miterlimit="10" stroke-linecap="round" stroke-linejoin="round"/>
<path d="M788.5 199.23H720.65C720.14 199.23 719.72 198.81 719.72 198.3V197.83C719.72 197.32 720.14 196.9 720.65 196.9H788.5C789.01 196.9 789.43 197.32 789.43 197.83V198.3C789.43 198.81 789.01 199.23 788.5 199.23Z" fill="#56C6B6"/>
<path d="M771.86 207.2H720.66C720.15 207.2 719.73 206.78 719.73 206.27V205.8C719.73 205.29 720.15 204.87 720.66 204.87H771.86C772.37 204.87 772.79 205.29 772.79 205.8V206.27C772.79 206.78 772.37 207.2 771.86 207.2Z" fill="#56C6B6"/>
<path d="M781.21 215.36H720.66C720.15 215.36 719.73 214.94 719.73 214.43V213.96C719.73 213.45 720.15 213.03 720.66 213.03H781.21C781.72 213.03 782.14 213.45 782.14 213.96V214.43C782.14 214.94 781.72 215.36 781.21 215.36Z" fill="#56C6B6"/>
<path d="M787.54 221.57H720.65C720.14 221.57 719.72 221.15 719.72 220.64V220.17C719.72 219.66 720.14 219.24 720.65 219.24H787.54C788.05 219.24 788.47 219.66 788.47 220.17V220.64C788.47 221.15 788.05 221.57 787.54 221.57Z" fill="#56C6B6"/>
<path d="M580.66 117.08H574.64C574.09 114.64 573.14 112.37 571.85 110.33L576.07 106.11C576.89 105.28 576.89 103.93 576.07 103.11L572.26 99.31C571.44 98.48 570.09 98.48 569.27 99.31L565.05 103.53C562.97 102.21 560.65 101.24 558.17 100.7V94.59C558.17 93.42 557.22 92.47 556.05 92.47H550.67C549.51 92.47 548.56 93.42 548.56 94.59V100.76C546.14 101.31 543.88 102.28 541.85 103.58L537.46 99.19C536.64 98.36 535.29 98.36 534.47 99.19L530.66 102.99C529.84 103.81 529.84 105.16 530.66 105.99L535.08 110.41C533.81 112.43 532.87 114.68 532.33 117.08H526.07C524.9 117.08 523.95 118.03 523.95 119.2V124.58C523.95 125.74 524.9 126.7 526.07 126.7H532.33C532.88 129.14 533.83 131.41 535.12 133.45L530.66 137.91C529.84 138.74 529.84 140.09 530.66 140.91L534.47 144.71C535.29 145.54 536.64 145.54 537.46 144.71L541.92 140.25C543.93 141.52 546.17 142.47 548.56 143.02V149.19C548.56 150.35 549.51 151.31 550.67 151.31H556.05C557.22 151.31 558.17 150.35 558.17 149.19V143.08C560.62 142.54 562.92 141.59 564.98 140.3L569.27 144.59C570.09 145.42 571.44 145.42 572.26 144.59L576.07 140.79C576.89 139.96 576.89 138.62 576.07 137.79L571.8 133.52C573.11 131.46 574.09 129.16 574.64 126.7H580.66C581.83 126.7 582.78 125.74 582.78 124.58V119.2C582.78 118.03 581.83 117.08 580.66 117.08ZM567.65 126.7C567.44 127.35 567.18 127.99 566.88 128.6C565.43 131.55 563.03 133.95 560.08 135.4C559.47 135.7 558.83 135.96 558.17 136.18C556.7 136.67 555.12 136.93 553.49 136.93C551.76 136.93 550.1 136.64 548.56 136.09C547.96 135.89 547.38 135.64 546.82 135.36C543.88 133.89 541.49 131.47 540.06 128.51C539.77 127.93 539.53 127.32 539.33 126.7C538.83 125.22 538.57 123.65 538.57 122.01C538.57 120.28 538.86 118.62 539.41 117.08C539.6 116.51 539.83 115.96 540.1 115.43C541.55 112.48 543.95 110.08 546.9 108.62C547.44 108.36 547.99 108.12 548.56 107.93C550.1 107.38 551.76 107.09 553.49 107.09C555.12 107.09 556.7 107.35 558.17 107.84C558.8 108.05 559.41 108.29 560 108.58C562.96 110.02 565.37 112.4 566.84 115.34C567.12 115.9 567.37 116.48 567.57 117.08C568.12 118.62 568.41 120.28 568.41 122.01C568.41 123.65 568.15 125.22 567.65 126.7Z" fill="#3250B8"/>
<path d="M567.57 117.08C567.37 116.48 567.12 115.9 566.84 115.34C565.37 112.4 562.96 110.02 560 108.58C559.41 108.29 558.8 108.05 558.17 107.84C556.7 107.35 555.12 107.09 553.49 107.09C551.76 107.09 550.1 107.38 548.56 107.93C547.99 108.12 547.44 108.36 546.9 108.62C543.95 110.08 541.55 112.48 540.1 115.43C539.83 115.96 539.6 116.51 539.41 117.08C538.86 118.62 538.57 120.28 538.57 122.01C538.57 123.65 538.83 125.22 539.33 126.7C539.53 127.32 539.77 127.93 540.06 128.51C541.49 131.47 543.88 133.89 546.82 135.36C547.38 135.64 547.96 135.89 548.56 136.09C550.1 136.64 551.76 136.93 553.49 136.93C555.12 136.93 556.7 136.67 558.17 136.18C558.83 135.96 559.47 135.7 560.08 135.4C563.03 133.95 565.43 131.55 566.88 128.6C567.18 127.99 567.44 127.35 567.65 126.7C568.15 125.22 568.41 123.65 568.41 122.01C568.41 120.28 568.12 118.62 567.57 117.08ZM560.74 122.46C560.65 124.07 560.02 125.54 559.04 126.7C558.77 127.02 558.49 127.3 558.17 127.57C557.01 128.55 555.54 129.17 553.93 129.26C553.79 129.28 553.64 129.28 553.49 129.28C553.3 129.28 553.11 129.27 552.92 129.25C551.24 129.13 549.72 128.43 548.56 127.34C548.34 127.15 548.13 126.93 547.94 126.7C546.93 125.51 546.3 124 546.24 122.34C546.22 122.23 546.22 122.12 546.22 122.01C546.22 121.86 546.22 121.71 546.24 121.57C546.34 119.84 547.04 118.28 548.16 117.08C548.28 116.94 548.41 116.8 548.56 116.68C549.74 115.57 551.31 114.86 553.04 114.76C553.19 114.74 553.34 114.74 553.49 114.74C553.6 114.74 553.71 114.74 553.82 114.76C555.47 114.82 556.98 115.45 558.17 116.45C558.41 116.65 558.62 116.86 558.82 117.08C559.91 118.25 560.61 119.77 560.73 121.45C560.75 121.63 560.76 121.82 560.76 122.01C560.76 122.16 560.76 122.31 560.74 122.46Z" fill="#567CE0"/>
<path d="M590.83 161.31L589.56 157.67C589.29 156.87 588.42 156.46 587.63 156.73L583.55 158.15C582.6 156.63 581.42 155.32 580.06 154.24L581.92 150.39C582.28 149.63 581.97 148.72 581.22 148.35L577.74 146.68C576.99 146.31 576.07 146.63 575.71 147.39L573.85 151.24C572.13 150.84 570.33 150.73 568.52 150.95L567.08 146.81C566.8 146.02 565.94 145.6 565.14 145.88L561.5 147.15C560.71 147.42 560.29 148.29 560.57 149.08L562.03 153.26C560.52 154.21 559.22 155.4 558.15 156.76L554.14 154.82C553.39 154.45 552.47 154.77 552.11 155.53L550.43 159C550.07 159.75 550.39 160.67 551.14 161.03L555.18 162.98C554.8 164.65 554.69 166.4 554.89 168.15L550.65 169.63C549.86 169.91 549.44 170.77 549.72 171.57L550.99 175.21C551.26 176 552.13 176.42 552.93 176.15L557.17 174.67C558.11 176.19 559.29 177.5 560.65 178.58L558.68 182.65C558.32 183.41 558.64 184.32 559.39 184.69L562.87 186.36C563.62 186.73 564.54 186.41 564.9 185.65L566.86 181.58C568.52 181.96 570.26 182.08 572.01 181.89L573.47 186.06C573.75 186.85 574.62 187.28 575.4 187L579.05 185.73C579.84 185.45 580.25 184.58 579.98 183.79L578.54 179.66C580.07 178.71 581.4 177.52 582.49 176.16L586.41 178.06C587.16 178.42 588.08 178.11 588.44 177.35L590.12 173.88C590.48 173.12 590.16 172.21 589.41 171.84L585.51 169.96C585.91 168.26 586.03 166.47 585.82 164.67L589.9 163.25C590.69 162.97 591.11 162.1 590.83 161.31ZM575.26 168.36C575.15 168.64 575.02 168.89 574.87 169.15C574.32 170.09 573.47 170.86 572.4 171.3C572.31 171.34 572.21 171.38 572.11 171.41C571.98 171.46 571.85 171.5 571.71 171.53C570.55 171.84 569.35 171.73 568.31 171.27C568.11 171.19 567.92 171.09 567.74 170.98C566.77 170.41 565.99 169.54 565.56 168.43C565.52 168.36 565.49 168.28 565.46 168.21C565.43 168.11 565.39 168.01 565.37 167.91C565.03 166.71 565.14 165.49 565.61 164.41C565.66 164.29 565.72 164.16 565.79 164.05C566.33 163.02 567.22 162.16 568.37 161.69C568.47 161.64 568.57 161.6 568.67 161.57C568.75 161.54 568.82 161.51 568.9 161.5C570.03 161.15 571.2 161.22 572.24 161.62C572.45 161.7 572.65 161.79 572.83 161.89C573.85 162.43 574.68 163.29 575.16 164.4C575.22 164.52 575.27 164.64 575.31 164.77C575.35 164.87 575.38 164.98 575.41 165.08C575.72 166.19 575.65 167.34 575.26 168.36Z" fill="#3250B8"/>
<path d="M580.49 162.97C580.08 161.79 579.5 160.74 578.76 159.82C578.48 159.47 578.18 159.13 577.85 158.82C576.16 157.18 573.97 156.13 571.62 155.86C571.16 155.8 570.69 155.78 570.21 155.79C569.1 155.8 567.97 156 566.86 156.39C565.69 156.79 564.64 157.38 563.72 158.12C563.38 158.38 563.07 158.68 562.76 158.98C561.11 160.66 560.05 162.86 559.76 165.2C559.71 165.62 559.68 166.05 559.69 166.48C559.68 167.65 559.87 168.84 560.28 170.02C560.67 171.13 561.22 172.13 561.91 173.01C562.19 173.39 562.49 173.74 562.83 174.07C564.5 175.73 566.69 176.81 569.03 177.11C569.47 177.17 569.92 177.2 570.38 177.19C571.55 177.2 572.74 177 573.91 176.6C575.02 176.21 576.03 175.66 576.91 174.98C577.3 174.68 577.67 174.35 578.02 174C579.67 172.32 580.73 170.13 581.01 167.79C581.07 167.31 581.1 166.81 581.09 166.32C581.08 165.2 580.88 164.08 580.49 162.97ZM575.26 168.36C575.15 168.64 575.02 168.89 574.87 169.15C574.32 170.09 573.47 170.86 572.4 171.3C572.31 171.34 572.21 171.38 572.11 171.41C571.98 171.46 571.85 171.5 571.71 171.53C570.55 171.84 569.35 171.73 568.31 171.27C568.11 171.19 567.92 171.09 567.74 170.98C566.77 170.41 565.99 169.54 565.56 168.43C565.52 168.36 565.49 168.28 565.46 168.21C565.43 168.11 565.39 168.01 565.37 167.91C565.03 166.71 565.14 165.49 565.61 164.41C565.66 164.29 565.72 164.16 565.79 164.05C566.33 163.02 567.22 162.16 568.37 161.69C568.47 161.64 568.57 161.6 568.67 161.57C568.75 161.54 568.82 161.51 568.9 161.5C570.03 161.15 571.2 161.22 572.24 161.62C572.45 161.7 572.65 161.79 572.83 161.89C573.85 162.43 574.68 163.29 575.16 164.4C575.22 164.52 575.27 164.64 575.31 164.77C575.35 164.87 575.38 164.98 575.41 165.08C575.72 166.19 575.65 167.34 575.26 168.36Z" fill="#3250B8"/>
<path d="M580.49 162.97C580.08 161.79 579.5 160.74 578.76 159.82C578.48 159.47 578.18 159.13 577.85 158.82C576.16 157.18 573.97 156.13 571.62 155.86C571.16 155.8 570.69 155.78 570.21 155.79C569.1 155.8 567.97 156 566.86 156.39C565.69 156.79 564.64 157.38 563.72 158.12C563.38 158.38 563.07 158.68 562.76 158.98C561.11 160.66 560.05 162.86 559.76 165.2C559.71 165.62 559.68 166.05 559.69 166.48C559.68 167.65 559.87 168.84 560.28 170.02C560.67 171.13 561.22 172.13 561.91 173.01C562.19 173.39 562.49 173.74 562.83 174.07C564.5 175.73 566.69 176.81 569.03 177.11C569.47 177.17 569.92 177.2 570.38 177.19C571.55 177.2 572.74 177 573.91 176.6C575.02 176.21 576.03 175.66 576.91 174.98C577.3 174.68 577.67 174.35 578.02 174C579.67 172.32 580.73 170.13 581.01 167.79C581.07 167.31 581.1 166.81 581.09 166.32C581.08 165.2 580.88 164.08 580.49 162.97ZM575.26 168.36C575.15 168.64 575.02 168.89 574.87 169.15C574.32 170.09 573.47 170.86 572.4 171.3C572.31 171.34 572.21 171.38 572.11 171.41C571.98 171.46 571.85 171.5 571.71 171.53C570.55 171.84 569.35 171.73 568.31 171.27C568.11 171.19 567.92 171.09 567.74 170.98C566.77 170.41 565.99 169.54 565.56 168.43C565.52 168.36 565.49 168.28 565.46 168.21C565.43 168.11 565.39 168.01 565.37 167.91C565.03 166.71 565.14 165.49 565.61 164.41C565.66 164.29 565.72 164.16 565.79 164.05C566.33 163.02 567.22 162.16 568.37 161.69C568.47 161.64 568.57 161.6 568.67 161.57C568.75 161.54 568.82 161.51 568.9 161.5C570.03 161.15 571.2 161.22 572.24 161.62C572.45 161.7 572.65 161.79 572.83 161.89C573.85 162.43 574.68 163.29 575.16 164.4C575.22 164.52 575.27 164.64 575.31 164.77C575.35 164.87 575.38 164.98 575.41 165.08C575.72 166.19 575.65 167.34 575.26 168.36Z" fill="#567CE0"/>
<path d="M158.08 110.16C158.08 110.16 156.59 110.38 154.18 111.03" stroke="#567CE0" stroke-width="2" stroke-linecap="round" stroke-linejoin="round"/>
<path d="M146.66 113.64C134.81 118.66 117.77 130.44 116.08 156.85C113.8 192.53 163.19 192.24 161.23 177.8C159.26 163.35 122.24 178.69 134.73 208.65C141.81 225.63 167.97 226.62 181.32 225.95" stroke="#567CE0" stroke-width="2" stroke-linecap="round" stroke-linejoin="round" stroke-dasharray="7.97 7.97"/>
<path d="M185.29 225.68C187.78 225.47 189.26 225.25 189.26 225.25" stroke="#567CE0" stroke-width="2" stroke-linecap="round" stroke-linejoin="round"/>
<path d="M189.78 218.6V232.22L201.45 225.41L189.78 218.6Z" fill="#567CE0"/>
<path d="M239.08 132.47V183.64" stroke="#567CE0" stroke-width="2" stroke-miterlimit="10" stroke-linecap="round" stroke-linejoin="round" stroke-dasharray="8 8"/>
<path d="M234.16 267.78V287.24H277.68V310.47" stroke="#567CE0" stroke-width="2" stroke-miterlimit="10" stroke-linecap="round" stroke-linejoin="round" stroke-dasharray="8 8"/>
<path d="M277.98 56.66H305.34" stroke="#567CE0" stroke-width="2" stroke-miterlimit="10" stroke-linecap="round" stroke-linejoin="round" stroke-dasharray="8 8"/>
<path d="M355.1 77.64V116.99" stroke="#567CE0" stroke-width="2" stroke-miterlimit="10" stroke-linecap="round" stroke-linejoin="round" stroke-dasharray="8 8"/>
<path d="M410.43 48.9301H437.38V86.8801H462.79V59.1301H523.95" stroke="#567CE0" stroke-width="2" stroke-miterlimit="10" stroke-linecap="round" stroke-linejoin="round" stroke-dasharray="8 8"/>
<path d="M462.59 91.6201V121.89" stroke="#567CE0" stroke-width="2" stroke-miterlimit="10" stroke-linecap="round" stroke-linejoin="round" stroke-dasharray="8 8"/>
<path d="M808.72 231.56H706.55C704.47 231.56 702.76 229.85 702.76 227.77V77.92C702.76 75.84 704.47 74.13 706.55 74.13H808.72C810.8 74.13 812.51 75.84 812.51 77.92V227.77C812.51 229.85 810.8 231.56 808.72 231.56Z" stroke="#567CE0" stroke-width="2" stroke-miterlimit="10" stroke-linecap="round" stroke-linejoin="round" stroke-dasharray="8 8"/>
<path d="M691.97 151.31H651.92" stroke="#567CE0" stroke-width="2" stroke-miterlimit="10" stroke-linecap="round" stroke-linejoin="round" stroke-dasharray="8 8"/>
<path d="M587.67 151.31H623.52" stroke="#567CE0" stroke-width="2" stroke-miterlimit="10" stroke-linecap="round" stroke-linejoin="round" stroke-dasharray="8 8"/>
<path d="M505.54 151.31H543.68" stroke="#567CE0" stroke-width="2" stroke-miterlimit="10" stroke-linecap="round" stroke-linejoin="round" stroke-dasharray="8 8"/>
<path d="M678.34 114.94C671.27 131.15 655.75 137.93 646.25 138.36C644.36 138.45 642.71 138.29 641.41 137.9C636.87 136.54 637.22 129.13 643.83 125.68C659.68 117.42 646.25 102.29 642.47 109.98C639.19 116.64 636.19 119.18 634.14 120.11C632.41 120.9 630.29 120.48 629.08 119.01C626.89 116.35 628.66 111.73 629.86 107.9C630.65 105.38 629.79 102.64 627.7 101.01C623.96 98.11 618 93.07 612.85 86.88C610.7 84.29 608.69 81.51 607.05 78.59C604.29 73.73 602.55 68.51 602.83 63.26C603.31 54.03 614.84 49.77 620.95 56.69C622.08 57.97 623.04 59.46 623.68 61.2C623.68 61.2 624.99 55.2 630.47 56.24C635.94 57.29 632.29 68.51 640.12 68.77C647.94 69.03 662.03 68.24 669.07 80.77C669.07 80.77 686.68 95.8 678.34 114.94Z" fill="#302755"/>
<path d="M641.41 137.9C642.71 138.29 644.36 138.45 646.25 138.36V155.45C640.51 156.58 631.93 160.72 626.13 164.31L625.38 142.98C613.51 141.68 600.53 140.9 600.6 117.29C600.63 108.89 602.95 102.05 605.57 96.98C608.6 91.14 612.04 87.66 612.85 86.88C618 93.07 623.96 98.11 627.7 101.01C629.79 102.64 630.65 105.38 629.86 107.9C628.66 111.73 626.89 116.35 629.08 119.01C630.29 120.48 632.41 120.9 634.14 120.11C636.19 119.18 639.19 116.64 642.47 109.98C646.25 102.29 659.68 117.42 643.83 125.68C637.22 129.13 636.87 136.54 641.41 137.9Z" fill="#6377D1"/>
<path d="M612.94 109.99C615.779 109.99 618.08 107.689 618.08 104.85C618.08 102.011 615.779 99.71 612.94 99.71C610.101 99.71 607.8 102.011 607.8 104.85C607.8 107.689 610.101 109.99 612.94 109.99Z" fill="white"/>
<path d="M609.46 97.66C609.46 97.66 615.13 94.73 619.24 99.32" stroke="#312256" stroke-miterlimit="10" stroke-linecap="round" stroke-linejoin="round"/>
<path d="M613.38 104.907C613.818 103.448 613.248 101.986 612.105 101.642C610.963 101.299 609.681 102.204 609.242 103.664C608.803 105.123 609.374 106.585 610.516 106.929C611.659 107.272 612.941 106.367 613.38 104.907Z" fill="#312256"/>
<path d="M605.53 110.65C605.24 113.61 603.7 114.87 601.37 114.73C598.02 114.52 593.81 114.74 593.81 112C593.81 110.46 595.67 109.51 597.39 109.13C597.64 109.07 597.89 109.03 598.13 109C598.62 108.93 599.07 108.92 599.43 108.95C600.07 109.01 600.63 108.47 600.8 107.67C601.14 106 601.69 104.67 602.27 103.64C602.44 103.33 602.66 103.11 602.89 102.95H602.9C603.15 102.8 603.43 102.72 603.7 102.73C604.43 102.75 605.14 103.36 605.33 104.43C605.72 106.7 605.71 108.85 605.53 110.65Z" fill="#ED3A4B"/>
<path d="M684.59 80.77C677.02 75.94 669.07 80.77 669.07 80.77C669.07 80.77 674.42 72.29 665.68 65.12" stroke="#312256" stroke-miterlimit="10" stroke-linecap="round" stroke-linejoin="round"/>
<path d="M607.36 113.49C607.26 113.49 607.15 113.48 607.05 113.46C604.86 113 604.63 108.22 605.53 103.97C606.43 99.71 608.57 95.44 610.75 95.9C612.94 96.36 613.17 101.14 612.27 105.39C611.79 107.68 611.01 109.77 610.09 111.27C609.21 112.72 608.25 113.49 607.36 113.49ZM610.44 96.62C609.18 96.62 607.22 99.58 606.26 104.13C605.26 108.87 605.96 112.47 607.2 112.73C607.82 112.86 608.66 112.17 609.45 110.88C610.33 109.45 611.07 107.44 611.54 105.23C612.54 100.49 611.84 96.89 610.6 96.63C610.55 96.62 610.5 96.62 610.44 96.62Z" fill="#3250B8"/>
<path d="M603.7 102.73C603.43 102.72 603.15 102.8 602.9 102.95C602.9 102.94 602.9 102.94 602.9 102.93C603.95 97.94 603.3 94.61 602.38 94.42C601.45 94.22 599.53 97.01 598.48 102C597.9 104.73 597.78 107.35 598.13 109C597.89 109.03 597.64 109.07 597.39 109.13C597.02 107.36 597.14 104.69 597.74 101.84C598.64 97.59 600.62 93.28 602.54 93.68C604.4 94.08 604.52 98.57 603.7 102.73Z" fill="#3250B8"/>
<path d="M604.24 123.88C604.24 123.88 608.87 125.35 610.53 120.65" stroke="#312256" stroke-miterlimit="10" stroke-linecap="round" stroke-linejoin="round"/>
<path d="M660.92 168.48H660.19C641.92 164.38 629 165.96 620.74 168.48H620.52C621.49 167.41 623.53 165.91 626.13 164.31C631.93 160.72 640.51 156.58 646.25 155.45C648.06 155.09 649.58 155.03 650.65 155.38C656.62 157.33 660.92 168.48 660.92 168.48Z" fill="#567CE0" stroke="white" stroke-miterlimit="10"/>
<path d="M534.86 246.55H513.2C513.2 246.55 513.11 246.71 512.97 247.02L509.3 246.76C511.78 238.89 535.41 242.14 535.41 242.14C535.12 242.97 534.67 244.63 534.86 246.55Z" fill="#6377D1" stroke="white" stroke-miterlimit="10"/>
<path d="M502.22 263.88C502.27 264.77 502.37 265.7 502.51 266.67C502.51 266.67 497.12 268.36 488.12 266.01C487.5 265.85 486.86 265.66 486.2 265.46C475.97 262.3 466.16 265.62 462.79 267C461.55 267.51 460.23 267.8 458.89 267.78C452.89 267.66 455.16 262.2 455.16 262.2C454.64 261.93 454.24 261.58 453.94 261.17C452.83 259.67 453.11 257.43 453.52 255.89C453.79 254.84 454.12 254.11 454.12 254.11C454.17 250.7 455.9 247.66 457.88 245.28C460.69 241.91 464.83 239.93 469.21 239.71C472.74 239.52 478.51 238.96 483.24 239.33C494.85 240.25 506.96 247.26 506.96 247.26C505.38 249.09 501.61 254.5 502.22 263.88Z" fill="#6377D1" stroke="white" stroke-miterlimit="10"/>
<path d="M680.96 231.56C682.01 250.18 681.7 272.82 678.32 298.63C678.15 299.98 677.68 301.25 676.97 302.36C676.1 303.73 674.87 304.85 673.38 305.59C662.35 311.03 633.18 320.9 594.55 314.27C592.51 313.92 590.81 312.75 589.63 311.14V311.13C588.51 309.62 587.85 307.73 587.79 305.78C587.6 298.88 587.53 287.6 588.57 276.93C588.89 273.57 589.33 270.27 589.91 267.18V267.17C606.03 251.01 622.67 221.23 628.44 205.07C635.29 185.9 636.27 174.74 620.74 168.48C629 165.96 641.92 164.38 660.19 168.48C660.44 168.53 660.7 168.59 660.95 168.65C667.03 170.05 672.59 173.76 675.41 179.33C680.48 189.32 684.42 205.89 680.96 231.54C680.96 231.55 680.97 231.55 680.96 231.56Z" fill="#3250B8" stroke="white" stroke-miterlimit="10"/>
<path d="M628.44 205.07C622.67 221.23 606.03 251.01 589.91 267.17V267.18C584.71 272.39 579.56 276.19 574.84 277.66C570.13 279.13 561.47 278.93 551.94 278C550.9 277.9 549.86 277.79 548.81 277.68C548.18 277.61 547.54 277.53 546.9 277.46C545.81 277.33 544.71 277.19 543.62 277.05C543.47 277.03 543.31 277.01 543.16 276.99C542.15 276.86 541.14 276.72 540.13 276.57C539.38 276.47 538.64 276.36 537.89 276.25C536.97 276.12 536.06 275.98 535.16 275.84C534.83 275.79 534.5 275.74 534.17 275.69C530.59 275.13 527.16 274.54 524.03 273.98C522.68 273.75 521.4 273.51 520.18 273.28C519.62 273.18 519.08 273.08 518.55 272.97C517.12 272.7 515.81 272.45 514.65 272.22H514.63C510.94 271.49 508.7 271.01 508.7 271.01C508.69 270.88 508.67 270.76 508.67 270.63C508.64 270.33 508.61 270.03 508.6 269.74C508.43 267.45 508.48 265.25 508.67 263.16C509.38 255.04 512.14 248.74 512.97 247.02C513.11 246.71 513.2 246.55 513.2 246.55H565.25C566.16 244.63 567.07 242.73 567.97 240.86C579.55 216.95 590.74 197.61 595.79 188.62C601.16 179.07 609.91 171.87 620.36 168.59C620.62 168.6 620.86 168.61 621.11 168.63C636.25 174.92 635.23 186.05 628.44 205.07Z" fill="#3250B8" stroke="white" stroke-miterlimit="10"/>
<path d="M508.67 263.16C508.48 265.25 508.43 267.45 508.6 269.74C506.61 269.13 504.48 268.46 503.38 267.88C502.91 267.64 502.59 267.19 502.51 266.67C502.37 265.7 502.27 264.77 502.22 263.88C501.61 254.5 505.38 249.09 506.96 247.26C507.34 246.81 507.92 246.6 508.5 246.7L509.3 246.76L512.97 247.02C512.14 248.74 509.38 255.04 508.67 263.16Z" fill="#567CE0" stroke="white" stroke-miterlimit="10"/>
<path d="M599.12 99.36L603.52 101.02" stroke="#3250B8" stroke-miterlimit="10"/>
<path d="M612.35 103.43L629.19 109.99" stroke="#3250B8" stroke-miterlimit="10"/>
<path d="M680.96 231.56C679.96 195.5 668.56 171.85 668.56 171.85" stroke="white" stroke-miterlimit="10" stroke-linecap="round" stroke-linejoin="round"/>
<path d="M567.97 240.86C567.07 242.73 566.16 244.63 565.25 246.55H539.55C539.46 245.04 539.77 242.75 539.95 241.59C540.02 241.14 540.07 240.86 540.07 240.86H567.97Z" fill="#3250B8" stroke="white" stroke-miterlimit="10"/>
<path d="M539.55 246.55H534.86C534.67 244.63 535.12 242.97 535.41 242.14C535.52 241.81 535.82 241.59 536.17 241.59H539.95C539.77 242.75 539.46 245.04 539.55 246.55Z" fill="#567CE0" stroke="white" stroke-miterlimit="10"/>
<path d="M655.13 374.03C648.81 409.51 646.11 438.66 644 455C643.97 455.27 643.93 455.54 643.9 455.81H591.07L591 319.4C591.64 320.13 592.53 320.5 593.75 320.78C608.16 324.01 635 324.43 656.55 319.38C658.24 335.3 658.69 354.04 655.13 374.03Z" fill="#312256" stroke="white" stroke-miterlimit="10"/>
<path d="M678.73 365.38C670.38 420.61 671.23 455.81 671.23 455.81H643.9C643.93 455.54 643.97 455.27 644 455C646.11 438.66 648.81 409.51 655.13 374.03C658.69 354.04 658.24 335.3 656.55 319.38C663.18 317.83 669.31 315.76 674.42 313.09C675.14 312.71 675.69 312.42 676.08 311.98C676.08 311.98 683.06 336.75 678.73 365.38Z" fill="#312256" stroke="white" stroke-miterlimit="10"/>
<path d="M656.55 319.38C658.24 335.3 658.69 354.04 655.13 374.03C648.81 409.51 646.11 438.66 644 455C643.97 455.27 643.93 455.54 643.9 455.81" stroke="#594D93" stroke-width="3" stroke-miterlimit="10"/>
<path d="M676.88 308.14C676.93 310.3 676.69 311.31 676.08 311.98C675.69 312.42 675.14 312.71 674.42 313.09C669.31 315.76 663.18 317.83 656.55 319.38C635 324.43 608.16 324.01 593.75 320.78C592.53 320.5 591.64 320.13 591 319.4C590.3 318.62 589.9 317.43 589.69 315.57L589.63 311.14C590.81 312.75 592.51 313.92 594.55 314.27C633.18 320.9 662.35 311.03 673.38 305.59C674.87 304.85 676.1 303.73 676.97 302.36L676.88 308.14Z" fill="#567CE0" stroke="white" stroke-miterlimit="10"/>
<path d="M656.55 319.38V319.37" stroke="#221F20" stroke-width="0.25" stroke-miterlimit="10"/>
<path d="M455.09 261.52C455.09 261.52 456.2 254.3 473.7 256.52" stroke="white" stroke-miterlimit="10" stroke-linecap="round" stroke-linejoin="round"/>
<path d="M453.98 253.18C453.98 253.18 459.53 243.18 478.42 248.74" stroke="white" stroke-miterlimit="10" stroke-linecap="round" stroke-linejoin="round"/>
<path d="M605.65 98.54C605.65 98.54 604.8 96.22 602.13 96.89" stroke="#312256" stroke-miterlimit="10" stroke-linecap="round" stroke-linejoin="round"/>
<path d="M612.85 86.88C612.04 87.66 608.6 91.14 605.57 96.98C600.02 86.55 606.2 79.49 607.05 78.59C608.69 81.51 610.7 84.29 612.85 86.88Z" fill="#302755"/>
<path d="M607.15 78.49C607.15 78.49 607.12 78.52 607.05 78.59" stroke="#221F20" stroke-width="0.25" stroke-miterlimit="10"/>
<path d="M603.56 101.36C603.56 101.36 604.9 100.4 606.5 101.77" stroke="#3250B8" stroke-miterlimit="10"/>
</g>
</g>
<defs>
<filter id="filter0_d_631_5456" x="-4" y="0" width="977" height="464" filterUnits="userSpaceOnUse" color-interpolation-filters="sRGB">
<feFlood flood-opacity="0" result="BackgroundImageFix"/>
<feColorMatrix in="SourceAlpha" type="matrix" values="0 0 0 0 0 0 0 0 0 0 0 0 0 0 0 0 0 0 127 0" result="hardAlpha"/>
<feOffset dy="4"/>
<feGaussianBlur stdDeviation="2"/>
<feComposite in2="hardAlpha" operator="out"/>
<feColorMatrix type="matrix" values="0 0 0 0 0 0 0 0 0 0 0 0 0 0 0 0 0 0 0.25 0"/>
<feBlend mode="normal" in2="BackgroundImageFix" result="effect1_dropShadow_631_5456"/>
<feBlend mode="normal" in="SourceGraphic" in2="effect1_dropShadow_631_5456" result="shape"/>
</filter>
<linearGradient id="paint0_linear_631_5456" x1="484.5" y1="0" x2="484.5" y2="456" gradientUnits="userSpaceOnUse">
<stop stop-color="#BFC6F1"/>
<stop offset="1" stop-color="#BFC6F1" stop-opacity="0"/>
</linearGradient>
<clipPath id="clip0_631_5456">
<rect width="969" height="456" fill="white"/>
</clipPath>
<clipPath id="clip1_631_5456">
<rect width="740.8" height="435.31" fill="white" transform="translate(115 21)"/>
</clipPath>
</defs>
</svg>
